<?xml version="1.0" encoding="utf-8"?>
<!-- Generator: Adobe Illustrator 28.2.0, SVG Export Plug-In . SVG Version: 6.00 Build 0)  -->
<svg version="1.1" id="图层_1" xmlns="http://www.w3.org/2000/svg" xmlns:xlink="http://www.w3.org/1999/xlink" x="0px" y="0px"
	 viewBox="0 0 24 24" style="enable-background:new 0 0 24 24;" xml:space="preserve">
<style type="text/css">
	.st0{fill:#212121;}
</style>
<path class="st0" d="M21.6,12.2c-0.2,0.3-0.4,0.5-0.7,0.6l-7.3,4.4c-1,0.6-2.3,0.6-3.4,0l-7.3-4.4c-0.9-0.6-1.3-1.6-0.9-2.5l8.2,4.9
	c0.9,0.6,2.2,0.6,3.1,0.1l0.2-0.1l8.2-4.9C22.1,11,22,11.7,21.6,12.2z M21.9,13.9c0.2,0.6,0.2,1.3-0.2,1.8c-0.2,0.3-0.4,0.5-0.7,0.6
	l-7.3,4.4c-1,0.6-2.3,0.6-3.4,0l-7.3-4.4c-0.9-0.6-1.3-1.6-0.9-2.5l8.2,4.9c0.9,0.6,2.2,0.6,3.1,0.1l0.2-0.1L21.9,13.9z M13.7,2.7
	l7.6,4.6c0.6,0.3,0.7,1,0.3,1.5c-0.1,0.1-0.2,0.2-0.3,0.3l-7.6,4.6c-1,0.6-2.3,0.6-3.3,0L2.7,9.1C2.1,8.8,2,8.1,2.4,7.6
	c0.1-0.1,0.2-0.2,0.3-0.3l7.6-4.6C11.3,2.1,12.7,2.1,13.7,2.7z M11.5,4l-0.1,0.1L4.4,8.2l6.9,4.1c0.4,0.2,0.8,0.2,1.2,0.1l0.1-0.1
	l6.9-4.1l-6.9-4.1C12.3,3.9,11.9,3.8,11.5,4z"/>
</svg>
